<svg xmlns="http://www.w3.org/2000/svg" viewBox="0 0 416 430"><defs><style>.cls-1{fill:#3bb273;}</style></defs><title>Asset 2landing</title><g id="Layer_2" data-name="Layer 2"><g id="Layer_1-2" data-name="Layer 1"><path class="cls-1" d="M214.5,27A201.4,201.4,0,0,1,389.14,127.93,201.55,201.55,0,0,0,201.5,0C90.21,0,0,90.21,0,201.5A200.58,200.58,0,0,0,26.86,302.07,200.84,200.84,0,0,1,13,228.5C13,117.21,103.21,27,214.5,27Z"/><path class="cls-1" d="M389.14,127.93A200.84,200.84,0,0,1,403,201.5C403,312.79,312.79,403,201.5,403A201.4,201.4,0,0,1,26.86,302.07,201.55,201.55,0,0,0,214.5,430C325.79,430,416,339.79,416,228.5A200.58,200.58,0,0,0,389.14,127.93Z"/></g></g></svg>